<svg xmlns="http://www.w3.org/2000/svg" viewBox="0 0 1381.04 496.5"><defs><style>.cls-1,.cls-4{fill:#fff;}.cls-2{fill:#2a41e8;}.cls-3{fill:#2ea2db;}.cls-4{isolation:isolate;font-size:186px;font-family:OpenSans-Bold, Open Sans;font-weight:700;}</style></defs><title>job-logo</title><g id="Capa_2" data-name="Capa 2"><g id="Capa_1-2" data-name="Capa 1"><circle class="cls-1" cx="265.3" cy="300.2" r="188.5"/><path class="cls-2" d="M265.3,496.5a194.39,194.39,0,0,1-138.9-57.4C89.1,401.9,69,353,69,300.2,69,192.4,156.7,104,265.3,104a194.39,194.39,0,0,1,138.9,57.4c37.3,37.2,57.4,86.1,57.4,138.9,0,108.6-88.5,196.2-196.3,196.2Zm0-377c-99.3,0-180.8,80.7-180.8,180.8a179.69,179.69,0,0,0,52.8,128c34.1,34.1,79.1,52.8,128,52.8h0c99.3,0,180.8-80.7,180.8-180.8a179.69,179.69,0,0,0-52.8-128c-34.9-34.2-79.9-52.8-128-52.8Z"/><circle class="cls-1" cx="265" cy="300" r="159"/><path class="cls-3" d="M280.8,327.4s4.6-7.8-21.7-8.5c0,0-6.2,3.9-7.8-15.5h-7.8s-5.4-14.7-12.4-8.5c0,0-4.6,5.4-10.9-4.6,0,0-17.1-4.6-18.6,19.4,0,0-22.5,14.7,4.6,34.9l12.4,10.1-.8,24s6.2.8,3.1,10.9c0,0,8.5,7.8,1.6,23.3,0,0,8.5,24,24,16.3l-4.6-5.4,2.3-10.1h-7.7l5.4-10.9-4.6-3.9s27.1-.8,27.1-24c0,0-11.6-11.6,7.8-9.3,0,0,9.3,0,8.5-21.7,0,0,8.5-7.8,7-12.4C287,328.1,280.8,327.4,280.8,327.4Z"/><path class="cls-3" d="M411.1,236.6c-14.7,1.6-10.1,20.9-10.1,20.9-6.2,12.4-22.5-7-22.5-7-6.2,14-21.7-.8-21.7-.8-36.5-19.4-42.7,14.7-42.7,14.7-18.6,17.8-.8,42.7-.8,42.7,10.9,15.5,27.1-4.6,27.1-4.6,10.9,13.2,17.8,10.1,17.8,10.1l-1.5,7.8c-1.5,7.8,11.6,17.1,11.6,21.7,0,3.9-18.6,14-4.6,26.4s7.8,21,7.8,21,10.1,9.3,15.5,14c23.3-27.1,38-62.1,38-100.9A186.94,186.94,0,0,0,411.1,236.6Z"/><path class="cls-3" d="M145.8,268.4l7.8,17.1c7.8,16.3,19.4-3.1,16.3-10.9-3.1-8.5,3.9-20.9,23.3-16.3s10.9-3.1,27.9-24,27.1-3.9,31.8-17.1c5.4-12.4,9.3-36.5-10.1-21.7-19.4,14-17.8,7.8,0-14s-11.6,3.9-41.9,2.3c-13.2-.8-17.8-9.3-18.6-19.4a163.2,163.2,0,0,0-41.1,35.7c-3.1,9.3-5.4,20.2-10.1,36.5C124.9,263,145.8,268.4,145.8,268.4Z"/><path class="cls-1" d="M313.4,95.4c0,48.1,87.7,146.6,87.7,146.6s87.7-97.8,87.7-146.6c0-48.1-39.6-87.7-87.7-87.7a87.64,87.64,0,0,0-87.7,87.5Z"/><path class="cls-2" d="M401.1,249.8c-2.3,0-4.6-.8-5.4-2.3-3.9-3.9-90-100.9-90-151.3C305.7,42.7,348.4,0,401.1,0a95.3,95.3,0,0,1,95.4,95.3v.1c0,51.2-86.1,147.4-90,151.3C405,248.2,403.4,249.8,401.1,249.8Zm0-234.3a79.76,79.76,0,0,0-79.9,79.7v.2c0,34.9,53.5,103.2,79.9,134.2,27.1-31,79.9-100.1,79.9-134.2a79.76,79.76,0,0,0-79.7-79.9Z"/><circle class="cls-2" cx="401.1" cy="94.6" r="49.7"/><path class="cls-1" d="M7.8,380.9c0,35.7,64.4,107.8,64.4,107.8s64.4-72.1,64.4-107.8a64.4,64.4,0,0,0-128.8,0Z"/><path class="cls-2" d="M72.1,496.5c-2.3,0-4.7-.8-5.4-2.3-7-7.8-66.7-76-66.7-113.3a71.89,71.89,0,0,1,71.9-72.1h.3c39.6,0,72.1,32.6,72.1,72.1,0,38-59.7,105.5-66.7,113.3C76.8,495.7,74.5,496.5,72.1,496.5Zm0-173c-31,0-56.6,25.6-56.6,57.4,0,24,37.2,72.9,56.6,96.2,20.2-23.3,56.6-72.1,56.6-96.2.9-31.8-24.7-57.4-56.6-57.4Z"/><circle class="cls-2" cx="72.1" cy="380.1" r="31.8" transform="translate(-20.91 4.57) rotate(-3.17)"/><path class="cls-2" d="M22.5,300.2H7v-7.8l15.5.8Z"/><path class="cls-2" d="M23.3,278.5,7.8,277c.8-5.4.8-10.1,1.6-15.5l15.5,2.3C24,268.4,24,273.1,23.3,278.5ZM27.9,249l-15.5-3.1a74.08,74.08,0,0,1,3.9-14.7L31,235.1C30.3,239.7,28.7,244.4,27.9,249Zm7.8-27.9L21,215.6c1.5-4.6,3.9-10.1,5.4-14.7l14,6.2Zm10.9-27.2-14-7,7-14,13.2,7.8c-1.6,4.7-3.9,8.6-6.2,13.2Zm14.7-25.6-13.2-8.5c3.1-3.9,6.2-8.5,9.3-12.4l12.4,9.3a118.83,118.83,0,0,0-8.5,11.6Zm17.1-23.2L66.7,135c3.1-3.9,7-7.8,10.1-11.6l11.6,10.9a127.86,127.86,0,0,0-10,10.8Zm20.1-21.8L87.6,111.7a137.46,137.46,0,0,1,11.6-10.1l10.1,11.6c-3,3.9-6.9,7-10.8,10.1ZM121,104.7l-9.3-12.4a113.49,113.49,0,0,1,12.4-8.5L132.6,97A111,111,0,0,0,121,104.7Zm24.8-15.5L138.1,76l14-7,7,14a73.07,73.07,0,0,0-13.3,6.2ZM172.2,76,166,62a78.64,78.64,0,0,1,14.7-5.4l5.4,14.7C180.8,72.1,176.1,74.5,172.2,76Zm27.2-9.3L195.5,52c4.6-1.5,10.1-2.3,14.7-3.9l3.1,15.5a93.16,93.16,0,0,0-13.9,3.1Zm28.7-6.2L225.8,45a100.45,100.45,0,0,1,15.5-1.5L242.9,59a90.54,90.54,0,0,0-14.8,1.5Z"/><path class="cls-2" d="M257.5,57.4l-.8-15.5h7.8V57.4Z"/><text class="cls-4" transform="translate(490.09 363.69)">LISTIFIND</text></g></g></svg>