<?xml version="1.0" encoding="utf-8"?>
<!-- Generator: Adobe Illustrator 23.0.3, SVG Export Plug-In . SVG Version: 6.00 Build 0)  -->
<svg version="1.1" id="Capa_1" xmlns="http://www.w3.org/2000/svg" xmlns:xlink="http://www.w3.org/1999/xlink" x="0px" y="0px"
	 viewBox="0 0 1417.8 496.5" style="enable-background:new 0 0 1417.8 496.5;" xml:space="preserve">
<style type="text/css">
	.st0{fill:#FFFFFF;}
	.st1{fill:#8731E8;}
	.st2{fill:#E1E6E9;}
	.st3{fill:#2EA2DB;}
	.st4{font-family:'OpenSans-Bold';}
	.st5{font-size:186px;}
</style>
<title>Recurso 2</title>
<g>
	<circle class="st0" cx="265.3" cy="300.2" r="188.5"/>
	<path class="st1" d="M265.3,496.5c-52.8,0-101.6-20.2-138.9-57.4S69,353,69,300.2C69,192.4,156.7,104,265.3,104
		c52.8,0,101.6,20.2,138.9,57.4s57.4,86.1,57.4,138.9C461.6,408.9,373.1,496.5,265.3,496.5L265.3,496.5z M265.3,119.5
		c-99.3,0-180.8,80.7-180.8,180.8c-0.2,48,18.8,94.1,52.8,128c34.1,34.1,79.1,52.8,128,52.8l0,0c99.3,0,180.8-80.7,180.8-180.8
		c0.2-48-18.8-94.1-52.8-128C358.4,138.1,313.4,119.5,265.3,119.5L265.3,119.5z"/>
	<circle class="st2" cx="265" cy="300" r="159"/>
	<path class="st3" d="M280.8,327.4c0,0,4.6-7.8-21.7-8.5c0,0-6.2,3.9-7.8-15.5h-7.8c0,0-5.4-14.7-12.4-8.5c0,0-4.6,5.4-10.9-4.6
		c0,0-17.1-4.6-18.6,19.4c0,0-22.5,14.7,4.6,34.9l12.4,10.1l-0.8,24c0,0,6.2,0.8,3.1,10.9c0,0,8.5,7.8,1.6,23.3c0,0,8.5,24,24,16.3
		l-4.6-5.4l2.3-10.1h-7.7l5.4-10.9l-4.6-3.9c0,0,27.1-0.8,27.1-24c0,0-11.6-11.6,7.8-9.3c0,0,9.3,0,8.5-21.7c0,0,8.5-7.8,7-12.4
		C287,328.1,280.8,327.4,280.8,327.4z"/>
	<path class="st3" d="M411.1,236.6c-14.7,1.6-10.1,20.9-10.1,20.9c-6.2,12.4-22.5-7-22.5-7c-6.2,14-21.7-0.8-21.7-0.8
		c-36.5-19.4-42.7,14.7-42.7,14.7c-18.6,17.8-0.8,42.7-0.8,42.7c10.9,15.5,27.1-4.6,27.1-4.6c10.9,13.2,17.8,10.1,17.8,10.1
		l-1.5,7.8c-1.5,7.8,11.6,17.1,11.6,21.7c0,3.9-18.6,14-4.6,26.4s7.8,21,7.8,21s10.1,9.3,15.5,14c23.3-27.1,38-62.1,38-100.9
		C424.4,279.9,419.7,257.6,411.1,236.6z"/>
	<path class="st3" d="M145.8,268.4l7.8,17.1c7.8,16.3,19.4-3.1,16.3-10.9c-3.1-8.5,3.9-20.9,23.3-16.3c19.4,4.7,10.9-3.1,27.9-24
		s27.1-3.9,31.8-17.1c5.4-12.4,9.3-36.5-10.1-21.7c-19.4,14-17.8,7.8,0-14s-11.6,3.9-41.9,2.3c-13.2-0.8-17.8-9.3-18.6-19.4
		c-15.6,9.5-29.5,21.6-41.1,35.7c-3.1,9.3-5.4,20.2-10.1,36.5C124.9,263,145.8,268.4,145.8,268.4z"/>
	<path class="st0" d="M313.4,95.4c0,48.1,87.7,146.6,87.7,146.6s87.7-97.8,87.7-146.6c0-48.1-39.6-87.7-87.7-87.7
		c-48.4,0-87.6,39.1-87.7,87.5C313.4,95.3,313.4,95.4,313.4,95.4z"/>
	<path class="st1" d="M401.1,249.8c-2.3,0-4.6-0.8-5.4-2.3c-3.9-3.9-90-100.9-90-151.3c0-53.5,42.7-96.2,95.4-96.2
		s95.4,42.6,95.4,95.3v0.1c0,51.2-86.1,147.4-90,151.3C405,248.2,403.4,249.8,401.1,249.8z M401.1,15.5
		c-44.1-0.1-79.8,35.6-79.9,79.7c0,0.1,0,0.1,0,0.2c0,34.9,53.5,103.2,79.9,134.2c27.1-31,79.9-100.1,79.9-134.2
		c0.1-44.1-35.6-79.8-79.7-79.9C401.2,15.5,401.1,15.5,401.1,15.5L401.1,15.5z"/>
	<circle class="st1" cx="401.1" cy="94.6" r="49.7"/>
	<path class="st0" d="M7.8,380.9c0,35.7,64.4,107.8,64.4,107.8s64.4-72.1,64.4-107.8c0-35.6-28.8-64.4-64.4-64.4
		S7.8,345.3,7.8,380.9L7.8,380.9L7.8,380.9z"/>
	<path class="st1" d="M72.1,496.5c-2.3,0-4.7-0.8-5.4-2.3c-7-7.8-66.7-76-66.7-113.3c-0.1-39.8,32.1-72.1,71.9-72.1
		c0.1,0,0.2,0,0.3,0c39.6,0,72.1,32.6,72.1,72.1c0,38-59.7,105.5-66.7,113.3C76.8,495.7,74.5,496.5,72.1,496.5z M72.1,323.5
		c-31,0-56.6,25.6-56.6,57.4c0,24,37.2,72.9,56.6,96.2c20.2-23.3,56.6-72.1,56.6-96.2C129.6,349.1,104,323.5,72.1,323.5L72.1,323.5z
		"/>
	
		<ellipse transform="matrix(0.9985 -5.530038e-02 5.530038e-02 0.9985 -20.9093 4.5688)" class="st1" cx="72.1" cy="380.1" rx="31.8" ry="31.8"/>
	<path class="st1" d="M22.5,300.2H7v-7.8l15.5,0.8V300.2z"/>
	<path class="st1" d="M23.3,278.5L7.8,277c0.8-5.4,0.8-10.1,1.6-15.5l15.5,2.3C24,268.4,24,273.1,23.3,278.5z M27.9,249l-15.5-3.1
		c0.8-5,2.1-10,3.9-14.7l14.7,3.9C30.3,239.7,28.7,244.4,27.9,249z M35.7,221.1L21,215.6c1.5-4.6,3.9-10.1,5.4-14.7l14,6.2
		L35.7,221.1z M46.6,193.9l-14-7l7-14l13.2,7.8C51.2,185.4,48.9,189.3,46.6,193.9L46.6,193.9z M61.3,168.3l-13.2-8.5
		c3.1-3.9,6.2-8.5,9.3-12.4l12.4,9.3C66.7,160.4,63.9,164.3,61.3,168.3L61.3,168.3z M78.4,145.1L66.7,135c3.1-3.9,7-7.8,10.1-11.6
		l11.6,10.9C84.9,137.7,81.5,141.3,78.4,145.1L78.4,145.1z M98.5,123.3l-10.9-11.6c3.7-3.6,7.6-7,11.6-10.1l10.1,11.6
		C106.3,117.1,102.4,120.2,98.5,123.3L98.5,123.3z M121,104.7l-9.3-12.4c4-3.1,8.1-6,12.4-8.5l8.5,13.2
		C128.6,99.3,124.7,101.9,121,104.7z M145.8,89.2L138.1,76l14-7l7,14C154.5,84.6,150,86.7,145.8,89.2L145.8,89.2z M172.2,76L166,62
		c4.7-2.3,9.7-4.1,14.7-5.4l5.4,14.7C180.8,72.1,176.1,74.5,172.2,76z M199.4,66.7L195.5,52c4.6-1.5,10.1-2.3,14.7-3.9l3.1,15.5
		C208.6,64.3,203.9,65.3,199.4,66.7L199.4,66.7z M228.1,60.5L225.8,45c5.1-0.9,10.3-1.4,15.5-1.5l1.6,15.5
		C237.9,59.1,232.9,59.6,228.1,60.5L228.1,60.5z"/>
	<path class="st1" d="M257.5,57.4l-0.8-15.5h7.8v15.5H257.5z"/>
	<text transform="matrix(1 0 0 1 490.09 363.69)" class="st0 st4 st5">LISTIFIND</text>
</g>
</svg>
