<svg xmlns="http://www.w3.org/2000/svg" viewBox="0 0 512 458"><defs><style>.cls-1{fill:#f55d2c;}</style></defs><title>Recurso 2</title><g id="Capa_2" data-name="Capa 2"><g id="Layer_1" data-name="Layer 1"><path class="cls-1" d="M422,192a10,10,0,1,0-7.07-2.93A10.08,10.08,0,0,0,422,192Z"/><path class="cls-1" d="M472,245.74V50A50.06,50.06,0,0,0,422,0H50A50.06,50.06,0,0,0,0,50V314a50.06,50.06,0,0,0,50,50H271.25A122,122,0,1,0,472,245.74ZM50,344a30,30,0,0,1-30-30V50A30,30,0,0,1,50,20H422a30,30,0,0,1,30,30V231A121.22,121.22,0,0,0,392,214V54a10,10,0,0,0-10-10H265.63a10,10,0,0,0,0,20H372V215.33A122.37,122.37,0,0,0,273.42,300H68V64H175.63a10,10,0,0,0,0-20H58A10,10,0,0,0,48,54V310a10,10,0,0,0,10,10H269.05A122.5,122.5,0,0,0,268,336c0,2.69.1,5.35.27,8Zm340,94A102,102,0,1,1,492,336,102.12,102.12,0,0,1,390,438Z"/><path class="cls-1" d="M459.16,346H421.75A21.78,21.78,0,0,0,400,367.75v37.41a10,10,0,0,0,12.77,9.61,82.58,82.58,0,0,0,56-56A10,10,0,0,0,459.16,346ZM420,390.23V367.75a1.75,1.75,0,0,1,1.75-1.75h22.48A62.83,62.83,0,0,1,420,390.23Z"/><path class="cls-1" d="M358.25,346H320.84a10,10,0,0,0-9.61,12.77,82.56,82.56,0,0,0,56,56,9.72,9.72,0,0,0,2.77.4,10,10,0,0,0,10-10V367.75A21.78,21.78,0,0,0,358.25,346ZM360,390.23A62.83,62.83,0,0,1,335.77,366h22.48a1.75,1.75,0,0,1,1.75,1.75Z"/><path class="cls-1" d="M400,326h59.16a10,10,0,0,0,9.61-12.77,82,82,0,0,0-157.54,0A10,10,0,0,0,320.84,326H380v2.25a10,10,0,0,0,20,0Zm-10-52a62.34,62.34,0,0,1,54.24,32H335.76A62.34,62.34,0,0,1,390,274Z"/><path class="cls-1" d="M159.69,124h-7.61A62.15,62.15,0,0,0,90,186.08,17.94,17.94,0,0,0,107.92,204h16.82a30,30,0,0,0,56.56,0h80.92a30,30,0,0,0,56.56,0h22.47a10,10,0,0,0,10-10V173.58a49.66,49.66,0,0,0-42-49A75.22,75.22,0,0,0,242.28,84a105.48,105.48,0,0,0-82.59,40Zm-7.61,20h58.18v40h-29a30,30,0,0,0-56.56,0H110.05a42.14,42.14,0,0,1,42-40Zm.94,60a10,10,0,1,1,10-10A10,10,0,0,1,153,204Zm137.48,0a10,10,0,1,1,10-10A10,10,0,0,1,290.5,204Zm40.75-30.42V184H318.78a30,30,0,0,0-56.56,0h-32V144h71.41A29.61,29.61,0,0,1,331.25,173.58Zm-89-69.58A55.28,55.28,0,0,1,285,124H187.42a85.42,85.42,0,0,1,54.86-20Z"/><path class="cls-1" d="M220.62,64a10,10,0,1,0-7.07-2.93A10.1,10.1,0,0,0,220.62,64Z"/></g></g></svg>