<?xml version="1.0" encoding="utf-8"?>
<!-- Generator: Adobe Illustrator 23.0.3, SVG Export Plug-In . SVG Version: 6.00 Build 0)  -->
<svg version="1.1" id="Capa_1" xmlns="http://www.w3.org/2000/svg" xmlns:xlink="http://www.w3.org/1999/xlink" x="0px" y="0px"
	 viewBox="0 0 480.2 480" style="enable-background:new 0 0 480.2 480;" xml:space="preserve">
<style type="text/css">
	.st0{fill:#FF5A5F;}
</style>
<title>4</title>
<g>
	<g id="Layer_1">
		<path class="st0" d="M224.1,432h32v16h-32V432z"/>
		<path class="st0" d="M224.1,200h32v16h-32V200z"/>
		<path class="st0" d="M456.1,120h-8v-16h-16v16h-22.4c-19.2-27.2-44.8-48.8-73.6-64.8V24c0.2-13-10.1-23.8-23.1-24
			c-0.3,0-0.6,0-0.9,0h-144c-13-0.2-23.8,10.1-24,23.1c0,0.3,0,0.6,0,0.9v31.2c-35.1,18.4-64.2,46.5-84,80.8
			c-35.2,2.4-61.6,32.8-60,68c1.6,21.7,13.9,41.2,32.8,52c1.5,19.1,5.6,37.9,12,56c-21.8,14.6-27.7,44.1-13.1,65.9
			c0.1,0.2,0.2,0.3,0.3,0.5c1.6,2.4,4,4.8,5.6,7.2L72.1,420l26.4-26.4c13.7,12.7,29,23.5,45.6,32V456c-0.2,13,10.1,23.8,23.1,24
			c0.3,0,0.6,0,0.9,0h144c13,0.2,23.8-10.1,24-23.1c0-0.3,0-0.6,0-0.9v-31.2c12-6.4,22.4-12.8,32.8-21.6c24,26.4,64,28,90.4,4
			s28-64,4-90.4c-6.4-7.2-15.2-12.8-24-16.8c4.9-16.9,7.9-34.4,8.8-52h8c13,0.2,23.8-10.1,24-23.1c0-0.3,0-0.6,0-0.9v-80
			c0.2-13-10.1-23.8-23.1-24C456.6,120,456.4,120,456.1,120L456.1,120z M464.1,144v8h-96v-8c-0.3-4.2,2.9-7.7,7.1-8
			c0.3,0,0.6,0,0.9,0h80c4.2-0.3,7.7,2.9,8,7.1C464.1,143.4,464.1,143.7,464.1,144z M160.1,24c-0.3-4.2,2.9-7.7,7.1-8
			c0.3,0,0.6,0,0.9,0h144c4.2-0.3,7.7,2.9,8,7.1c0,0.3,0,0.6,0,0.9v80c0.3,4.2-2.9,7.7-7.1,8c-0.3,0-0.6,0-0.9,0h-51.2l-20.8,20.8
			L219.3,112h-51.2c-4.2,0.3-7.7-2.9-8-7.1c0-0.3,0-0.6,0-0.9V24z M16.1,200c0-26.5,21.5-48,48-48s48,21.5,48,48s-21.5,48-48,48
			C37.6,247.9,16.1,226.5,16.1,200z M72.1,396.8l-22.4-22.4c-12-12-12-32,0-44.8c5.9-6,14-9.5,22.4-9.6h0.8
			c17.2,0,31.2,14,31.2,31.2c0,8-3.2,16.8-9.6,22.4L72.1,396.8z M320.1,400h-160V192c-0.3-4.2,2.9-7.7,7.1-8c0.3,0,0.6,0,0.9,0h144
			c4.2-0.3,7.7,2.9,8,7.1c0,0.3,0,0.6,0,0.9V400z M312.1,464h-144c-4.2,0.3-7.7-2.9-8-7.1c0-0.3,0-0.6,0-0.9v-40h160v40
			c0.3,4.2-2.9,7.7-7.1,8C312.7,464,312.4,464,312.1,464z M464.1,360c0,26.5-21.5,48-48,48s-48-21.5-48-48s21.5-48,48-48
			C442.5,312.1,464,333.5,464.1,360z M423.3,296.8c-35.2-4-67.2,20.8-71.2,56c-1.7,13,0.9,26.2,7.2,37.6c-7.4,5.8-15.2,11.1-23.2,16
			V192c0.2-13-10.1-23.8-23.1-24c-0.3,0-0.6,0-0.9,0h-144c-13-0.2-23.8,10.1-24,23.1c0,0.3,0,0.6,0,0.9v214.4
			c-12.3-7.4-23.8-15.9-34.4-25.6c16-20.8,12.8-50.4-8-66.4c-8.4-6.7-18.8-10.4-29.6-10.4h-0.8c-4,0.1-8.1,0.7-12,1.6
			c-4.8-13.6-8.8-28.8-10.4-43.2c34.5,8,68.8-13.5,76.8-48s-13.5-68.8-48-76.8h-0.8c16.7-26.3,39.5-48.3,66.4-64V104
			c-0.2,13,10.1,23.8,23.1,24c0.3,0,0.6,0,0.9,0h44.8l27.2,27.2l27.2-27.2h45.6c13,0.2,23.8-10.1,24-23.1c0-0.3,0-0.6,0-0.9V73.6
			c20.7,11.9,38.9,27.7,53.6,46.4h-13.6c-13-0.2-23.8,10.1-24,23.1c0,0.3,0,0.6,0,0.9v80c-0.2,13,10.1,23.8,23.1,24
			c0.3,0,0.6,0,0.9,0h56C431.2,264.6,428.2,281,423.3,296.8z M456.1,232h-80c-4.2,0.3-7.7-2.9-8-7.1c0-0.3,0-0.6,0-0.9v-56h96v56
			c0.3,4.2-2.9,7.7-7.1,8C456.7,232,456.4,232,456.1,232L456.1,232z"/>
		<path class="st0" d="M92.9,209.6L72.1,196v-28h-16v36l27.2,18.4L92.9,209.6z"/>
		<path class="st0" d="M392.1,184h16v32h-16V184z"/>
		<path class="st0" d="M424.1,184h16v32h-16V184z"/>
		<path class="st0" d="M40.1,432h64v16h-64V432z"/>
		<path class="st0" d="M208.1,40h96v16h-96V40z"/>
		<path class="st0" d="M208.1,80h96v16h-96V80z"/>
		<path class="st0" d="M408.1,328h16v32h-16V328z"/>
		<path class="st0" d="M408.1,376h16v16h-16V376z"/>
		<path class="st0" d="M176.1,40h16v16h-16V40z"/>
		<path class="st0" d="M176.1,80h16v16h-16V80z"/>
	</g>
</g>
</svg>
